<svg id="icons8-google-play-music" xmlns="http://www.w3.org/2000/svg" width="31.667" height="35" viewBox="0 0 31.667 35">
  <path id="Path_8821" data-name="Path 8821" d="M19.17,8.926,9.488,3.467A3.034,3.034,0,0,0,7.841,3,1.785,1.785,0,0,0,6,5.005V36a1.785,1.785,0,0,0,1.841,2,3.036,3.036,0,0,0,1.647-.467l7.8-4.4.026-1.646,14.916-8.7,1.783.918L36.332,22.4a2.185,2.185,0,0,0,1.335-1.9,2.187,2.187,0,0,0-1.336-1.9l-3.083-1.747Z" transform="translate(-6 -3)" fill="#8864d1"/>
  <path id="Path_8822" data-name="Path 8822" d="M17.786,34.137l6.207-3.5,3.363-1.9,7.155-4.034a12.72,12.72,0,0,0,.323-2.79A12.917,12.917,0,0,0,9.05,20.771Q9,21.337,9,21.917A12.9,12.9,0,0,0,17.786,34.137Z" transform="translate(-6.5 -4)" fill="#d3c1f8"/>
  <circle id="XMLID_7_" cx="7.917" cy="7.917" r="7.917" transform="translate(7.5 10)" fill="#502f92"/>
  <path id="XMLID_4_" d="M23.792,19v4.892a1.892,1.892,0,0,0-.937-.258,1.85,1.85,0,1,0,0,3.7,1.918,1.918,0,0,0,1.934-1.85V20.989h1.8V19Z" transform="translate(-8.5 -5.667)" fill="#8864d1"/>
</svg>
