<svg xmlns="http://www.w3.org/2000/svg" width="356" height="112" viewBox="0 0 356 112"><defs><linearGradient id="cmr0a" x1="83.96" x2="355.82" y1="7.91" y2="122.22" gradientUnits="userSpaceOnUse"><stop offset="0" stop-color="#ff07ac"/><stop offset="1" stop-color="#09f"/></linearGradient></defs><g><g><path fill="url(#cmr0a)" d="M296.16 33.639l44.614 50.085v12.982L296.16 46.94zm59.658-13.364v91.323l-9.208-7.637V20.275zm-64.002 8.21v83.113h-9.208v-91.96zm-58.232-7.892h2.4c18.286 0 32.358 8.74 42.214 26.22 2.55 6.279 3.826 12.112 3.826 17.5v2.928c0 15.825-7.63 28.574-22.89 38.248-6.83 4.03-14.353 6.046-22.567 6.046h-2.658c-6.744 0-12.407-1.252-16.99-3.755v-8.91c6.571 2.885 12.731 4.328 18.481 4.328 14.31 0 25.355-6.534 33.136-19.601 2.724-5.219 4.085-10.395 4.085-15.529V64.06c0-13.322-7.046-23.78-21.14-31.375-5.49-2.503-11.045-3.754-16.665-3.754-5.057 0-11.023 1.527-17.897 4.582v-9.164c4.669-2.504 10.224-3.755 16.665-3.755zM133.188 100.42h49.339v11.037h-49.34zm0-54.64h44.825v11.114h-44.825zm0-45.702h49.26v11.037h-49.26zM128.752 0v111.534h-10.875v.033l-11.167-.032L106.656 0l11.167.032v.791V0zm-26.07 0l.015 12.757-38.965 43.515h38.95V69.02h-49.8L15.58 111.38H.612L97.93 0z"/></g></g></svg>