<svg xmlns="http://www.w3.org/2000/svg" width="21" height="21" viewBox="0 0 21 21"><g><g><path fill="#fff" d="M16.54 19.53v-7.574a3.843 3.843 0 0 1 3.236 3.787 3.844 3.844 0 0 1-3.236 3.787zm-11.88-.24a3.843 3.843 0 0 1-3.236-3.787 3.847 3.847 0 0 1 3.236-3.787zm16.31-8.697c0-2.77-1.079-5.376-3.036-7.333A10.306 10.306 0 0 0 10.6.223c-2.77 0-5.376 1.079-7.334 3.037A10.306 10.306 0 0 0 .23 10.593v4.91a5.042 5.042 0 0 0 5.034 5.034c.333 0 .6-.266.6-.599v-8.865c0-.333-.267-.6-.6-.6a5.017 5.017 0 0 0-3.836 1.776v-1.656c0-5.056 4.116-9.171 9.172-9.171 5.056 0 9.171 4.115 9.171 9.171 0 .04.005.08.014.12a.55.55 0 0 0-.014.12v1.656a5.017 5.017 0 0 0-3.835-1.776c-.333 0-.6.266-.6.6v8.865c0 .333.267.599.6.599a5.042 5.042 0 0 0 5.034-5.034v-4.91a.55.55 0 0 0-.013-.12.55.55 0 0 0 .013-.12z"/></g></g></svg>