<svg xmlns="http://www.w3.org/2000/svg" width="18" height="18" viewBox="0 0 18 18"><g><g opacity=".4"><path d="M14.204 4.929c.188-.2.296-.442.322-.719a.987.987 0 0 0-.303-.718.985.985 0 0 0-.718-.302.987.987 0 0 0-.719.302c-.2.2-.302.442-.302.718 0 .276.102.518.302.719.202.2.443.302.719.302.276 0 .51-.102.7-.302zm-3.232 1.814c.552.552.832 1.226.832 2.004 0 .777-.28 1.452-.832 2.004a2.744 2.744 0 0 1-2.004.831c-.777 0-1.451-.28-2.003-.831a2.743 2.743 0 0 1-.832-2.004c0-.778.28-1.452.832-2.004a2.742 2.742 0 0 1 2.003-.832c.778 0 1.452.28 2.004.832zm.17 5.766a4.385 4.385 0 0 0 1.588-1.588 4.255 4.255 0 0 0 .586-2.174c0-.777-.197-1.508-.586-2.174a4.38 4.38 0 0 0-1.588-1.588A4.25 4.25 0 0 0 8.968 4.4a4.25 4.25 0 0 0-2.173.586 4.376 4.376 0 0 0-1.588 1.588 4.25 4.25 0 0 0-.586 2.174c0 .777.197 1.509.586 2.174a4.38 4.38 0 0 0 1.588 1.588 4.254 4.254 0 0 0 2.173.585c.777 0 1.509-.197 2.174-.585zM9.573 1.79c1.004 0 1.792.013 2.344.038.953.05 1.64.151 2.041.302a2.74 2.74 0 0 1 1.626 1.626c.15.4.252 1.088.303 2.041.025.527.038 1.316.038 2.344v1.21a55.29 55.29 0 0 1-.038 2.344c-.05.928-.152 1.615-.303 2.041-.3.753-.848 1.3-1.626 1.626-.4.15-1.088.252-2.041.302a53.67 53.67 0 0 1-2.344.038h-1.21c-1.003 0-1.792-.013-2.344-.038-.928-.05-1.615-.152-2.041-.302-.752-.301-1.3-.848-1.626-1.626-.15-.426-.252-1.113-.302-2.041a55.29 55.29 0 0 1-.038-2.344v-1.21c0-1.003.013-1.792.038-2.344.05-.953.152-1.64.302-2.041A2.741 2.741 0 0 1 3.978 2.13c.426-.15 1.113-.252 2.041-.302.552-.025 1.341-.038 2.345-.038zm-.605 15.424c1.629 0 2.818-.019 3.535-.056.715-.038 1.344-.146 1.871-.322a4.433 4.433 0 0 0 2.685-2.684c.175-.527.283-1.157.32-1.871.039-.717.058-1.907.058-3.535 0-1.634-.013-2.817-.038-3.516-.05-.727-.165-1.363-.34-1.89A4.43 4.43 0 0 0 14.374.657c-.527-.176-1.156-.284-1.87-.322C11.785.298 10.596.28 8.967.28 7.34.279 6.15.298 5.434.335c-.715.038-1.345.146-1.872.322A4.424 4.424 0 0 0 .878 3.34C.702 3.868.594 4.497.557 5.212.519 5.93.5 7.118.5 8.747c0 1.628.02 2.818.057 3.535.037.714.145 1.344.321 1.871.226.627.575 1.18 1.04 1.645a4.05 4.05 0 0 0 1.644 1.001c.527.201 1.156.322 1.872.36.716.037 1.906.056 3.534.056z"/></g></g></svg>