<svg id="instagram_1_" data-name="instagram (1)" xmlns="http://www.w3.org/2000/svg" width="35" height="35" viewBox="0 0 35 35">
  <path id="Path_8819" data-name="Path 8819" d="M24.573,0H10.427A10.438,10.438,0,0,0,0,10.427V24.573A10.438,10.438,0,0,0,10.427,35H24.573A10.438,10.438,0,0,0,35,24.573V10.427A10.439,10.439,0,0,0,24.573,0Zm6.906,24.573a6.906,6.906,0,0,1-6.906,6.906H10.427a6.906,6.906,0,0,1-6.906-6.906V10.427a6.906,6.906,0,0,1,6.906-6.906H24.573a6.906,6.906,0,0,1,6.906,6.906V24.573Z" fill="#8864d1"/>
  <path id="Path_8820" data-name="Path 8820" d="M142.052,133a9.052,9.052,0,1,0,9.052,9.052A9.063,9.063,0,0,0,142.052,133Zm0,14.583a5.531,5.531,0,1,1,5.531-5.531A5.531,5.531,0,0,1,142.052,147.583Z" transform="translate(-124.552 -124.552)" fill="#8864d1"/>
  <circle id="Ellipse_5" data-name="Ellipse 5" cx="2.169" cy="2.169" r="2.169" transform="translate(24.401 6.347)" fill="#8864d1"/>
</svg>
