<svg id="itunes_2_" data-name="itunes (2)" xmlns="http://www.w3.org/2000/svg" width="35" height="35" viewBox="0 0 35 35">
  <path id="Path_8810" data-name="Path 8810" d="M17.5,0A17.5,17.5,0,1,0,35,17.5,17.5,17.5,0,0,0,17.5,0Zm0,33.53A16.03,16.03,0,1,1,33.53,17.5,16.03,16.03,0,0,1,17.5,33.53Zm0,0" fill="#8864d1"/>
  <path id="Path_8811" data-name="Path 8811" d="M132.823,109.048a2.96,2.96,0,0,0,2.05-2.112l.087-.311.011-8.329c.009-6.237,0-8.368-.033-8.484a.774.774,0,0,0-.166-.308.714.714,0,0,0-.387-.1,6.963,6.963,0,0,0-.788.112c-1.464.273-10.092,2.032-10.239,2.087a1.1,1.1,0,0,0-.561.509l-.091.184s-.043,13.055-.109,13.2a.993.993,0,0,1-.529.5c-.1.032-.483.12-.857.2-1.731.353-2.374.607-2.918,1.153a2.455,2.455,0,0,0-.637,1.178,3.075,3.075,0,0,0,.072,1.447,2.472,2.472,0,0,0,.665,1.021,2.567,2.567,0,0,0,.947.465,4.929,4.929,0,0,0,3.035-.472,3.35,3.35,0,0,0,.937-.906,3.568,3.568,0,0,0,.281-.574c.247-.657.255-12.352.287-12.5a.629.629,0,0,1,.45-.495c.207-.056,8.516-1.737,8.749-1.77a.545.545,0,0,1,.506.172.427.427,0,0,1,.153.139c.067.1.072.306.081,4.009.012,4.262.017,4.162-.21,4.431-.164.2-.37.271-1.215.448a8.4,8.4,0,0,0-2.216.642,2.374,2.374,0,0,0-1.219,1.2,2.313,2.313,0,0,0-.256,1.085,2.388,2.388,0,0,0,.774,1.792c.049.049.1.1.146.139a2.165,2.165,0,0,0,.89.423,5.541,5.541,0,0,0,2.308-.176Zm0,0" transform="translate(-109.563 -83.288)" fill="#8864d1"/>
</svg>
