<svg xmlns="http://www.w3.org/2000/svg" width="23" height="25" viewBox="0 0 23 25"><g><g><path fill="#fff" d="M22.936.113a.46.46 0 0 0-.358-.11L8.487 1.826a.454.454 0 0 0-.396.45V18.465c-.83-.997-2.149-1.646-3.636-1.646-2.507 0-4.546 1.835-4.546 4.09C-.09 23.164 1.95 25 4.455 25 6.96 25 9 23.164 9 20.91c0-.106-.009-.21-.018-.313.006-.03.018-.056.018-.087V7.326L22.182 5.62v8.298c-.83-.997-2.149-1.646-3.637-1.646-2.506 0-4.545 1.835-4.545 4.091 0 2.256 2.039 4.09 4.545 4.09 2.484 0 4.506-1.802 4.543-4.03 0-.005.003-.01.003-.016V.454a.454.454 0 0 0-.155-.341z"/></g></g></svg>