<svg xmlns="http://www.w3.org/2000/svg" width="17" height="15" viewBox="0 0 17 15"><g><g opacity=".4"><path d="M16.671 1.458l-2.46 11.904c-.096.424-.259.692-.488.804-.229.113-.512.07-.85-.13L9.147 11.19 7.34 12.987a2.14 2.14 0 0 1-.29.262.88.88 0 0 1-.47.113l.29-3.93 6.908-6.477c.097-.075.127-.143.09-.206-.035-.062-.108-.087-.216-.074a.841.841 0 0 0-.344.13L4.77 8.384 1.082 7.185c-.41-.125-.603-.312-.579-.561.024-.25.278-.474.76-.674L15.622.223c.362-.125.651-.081.868.13.217.213.278.581.181 1.105z"/></g></g></svg>